<svg width="261" height="46" viewBox="0 0 261 46" fill="none" xmlns="http://www.w3.org/2000/svg">
<path d="M25.783 33.3508H27.8635V45.2648H31.6703V33.3508H35.4772V45.2648H39.284V33.3508H43.0909V45.2648H46.8977V33.3508H48.9635C49.657 33.3508 50.2029 32.8163 50.2029 32.1693V30.9033C50.2029 30.2422 49.6422 29.7218 48.9635 29.7218H25.783C25.0895 29.7218 24.5435 30.2563 24.5435 30.9033V32.1693C24.5435 32.8163 25.1042 33.3508 25.783 33.3508Z" fill="url(#paint0_linear_4_175)"/>
<path d="M73.3096 34.1807H71.8193V34.1667L66.8468 21.6056C67.2157 21.6056 67.555 21.5915 67.8649 21.5493C71.3324 21.4368 73.59 17.7796 70.9783 15.2477C70.4176 14.5725 67.7174 13.4613 67.5551 14.8539C67.5403 15.2196 67.8502 15.529 68.2338 15.5431C69.488 15.5572 70.5356 16.6684 70.4176 17.8218C68.5732 24.4188 52.2686 10.7325 38.1331 18.1313V16.9075C39.461 16.584 40.4496 15.4446 40.4496 14.0662C40.4496 12.4486 39.0774 11.1404 37.3805 11.1404C35.6837 11.1404 34.3114 12.4486 34.3114 14.0662C34.3114 15.4306 35.3001 16.584 36.628 16.9075V18.1453C34.6951 17.1466 32.5851 16.4574 30.4456 16.1339C24.9124 15.2759 19.4529 16.5981 14.2886 18.1172C11.8687 18.7502 9.40457 19.777 6.91093 19.6645C4.97799 19.6926 3.48771 17.8359 4.91897 16.2605C5.31736 15.8244 5.92233 15.5572 6.54205 15.529C6.91093 15.515 7.22079 15.2337 7.22079 14.882C7.23555 14.5163 6.92569 14.2068 6.54205 14.1928C4.4468 14.1084 2.58764 15.8807 2.66142 17.8922C2.66142 20.0443 5.25834 21.5493 6.77814 21.5212C7.17653 21.5634 7.56016 21.5775 7.9438 21.5775L2.95652 34.1526V34.1667H1.46624C0.949809 34.1667 0.536661 34.6168 0.654703 35.095C1.23016 37.7395 4.25499 39.7509 7.88478 39.7509H8.29793H9.77345H9.90625C13.477 39.6947 16.4281 37.7113 17.0035 35.1091C17.1068 34.6308 16.7084 34.1807 16.192 34.1807H14.7017V34.1667L9.67017 21.4649C11.4556 21.2258 13.1967 20.7054 14.9378 20.3537C21.6957 18.6939 29.5455 17.5827 35.4919 21.6056V23.9547H20.2497C19.5562 23.9547 19.0102 24.4892 19.0102 25.1362V26.4022C19.0102 27.0633 19.5709 27.5837 20.2497 27.5837H54.5409C55.2344 27.5837 55.7804 27.0492 55.7804 26.4022V25.1362C55.7804 24.4751 55.2197 23.9547 54.5409 23.9547H39.2987V21.6056C40.9808 20.4803 42.899 19.6926 44.95 19.2566C49.834 18.2297 54.9688 19.2003 59.8528 20.3397C61.4169 20.6913 63.3646 21.1977 65.1204 21.4509L60.0889 34.1667V34.1807H58.5986C58.0822 34.1807 57.669 34.6308 57.7871 35.1091C58.3625 37.7113 61.3136 39.7087 64.8843 39.7509H65.0171H66.4927H66.9058C70.5356 39.7509 73.5457 37.7395 74.1359 35.095C74.2392 34.6308 73.826 34.1807 73.3096 34.1807ZM3.78282 34.1807L8.48974 22.2808V34.1807H8.29793H3.78282ZM9.90625 34.1807H9.27177V22.548L13.8754 34.1807H9.90625ZM64.8696 34.1807H60.9004L65.5041 22.548V34.1807H64.8696ZM66.4779 34.1807H66.2861V22.2808L70.993 34.1807H66.4779Z" fill="url(#paint1_linear_4_175)"/>
<path d="M60.089 45.2649C61.1661 43.9989 62.14 42.6345 62.9662 41.1998C62.4941 41.1154 62.0367 40.9888 61.6088 40.8481C60.6644 42.4376 59.5578 43.9145 58.3036 45.2649H60.089Z" fill="url(#paint2_linear_4_175)"/>
<path d="M16.4871 45.2648C15.2476 43.9144 14.141 42.4375 13.1966 40.8621C12.754 41.0028 12.2966 41.1153 11.8244 41.2137C12.6507 42.6485 13.6245 44.0129 14.7017 45.2789H16.4871V45.2648Z" fill="url(#paint3_linear_4_175)"/>
<path d="M11.9572 17.0903C16.2805 7.79264 26.0485 1.29408 37.3805 1.29408C48.7126 1.29408 58.4658 7.79264 62.8039 17.0763C63.3941 17.2451 63.9548 17.3998 64.486 17.5264C60.1922 7.27219 49.6717 0 37.3805 0C25.0747 0 14.5394 7.30032 10.2604 17.5827C10.8211 17.4279 11.3818 17.2732 11.9572 17.0903Z" fill="url(#paint4_linear_4_175)"/>
<path d="M91.163 24.5158L91.1985 27.7996C90.8789 28.3075 90.4646 28.7701 89.9437 29.1877C89.4229 29.6052 88.7836 29.9325 88.0379 30.1695C87.2921 30.4064 86.4161 30.5306 85.4099 30.5306C83.8118 30.5193 82.4149 30.2259 81.2075 29.6504C80 29.0748 79.0649 28.251 78.3901 27.179C77.7272 26.1069 77.3958 24.8317 77.3958 23.3534C77.3958 21.8977 77.7272 20.6338 78.3901 19.573C79.053 18.5009 79.9882 17.6771 81.1957 17.0903C82.4031 16.5035 83.8473 16.2101 85.5046 16.2101C86.5818 16.2101 87.5407 16.323 88.393 16.5487C89.2453 16.7744 89.9674 17.0452 90.5593 17.3612L90.725 20.5209H90.5356C90.1923 19.2796 89.5886 18.3655 88.7126 17.8013C87.8366 17.2257 86.8186 16.9436 85.6466 16.9436C84.5221 16.9436 83.5514 17.2032 82.7227 17.7223C81.9059 18.2414 81.2667 18.9749 80.8287 19.9228C80.3789 20.8708 80.1539 21.9992 80.1539 23.297C80.1539 24.5948 80.367 25.7232 80.805 26.6937C81.243 27.6529 81.8467 28.409 82.6399 28.9394C83.433 29.4698 84.3563 29.7519 85.4099 29.7745C86.4398 29.7745 87.3394 29.6052 88.097 29.278C88.8547 28.9394 89.4821 28.3865 89.9792 27.6191C90.4646 26.8404 90.8079 25.8135 90.9973 24.5158H91.163Z" fill="#154759"/>
<path d="M95.0813 28.9169C94.9274 29.2893 94.9511 29.5601 95.1405 29.7632C95.3299 29.9551 95.543 30.0566 95.7797 30.0566H95.9455V30.2485H91.8851V30.0566H92.0509C92.335 30.0566 92.6309 29.9664 92.9387 29.7858C93.2465 29.6052 93.4832 29.3118 93.6845 28.9056H95.0813V28.9169ZM98.9996 18.0044L99.0588 20.0244L94.5013 30.2033H93.0571L97.8987 20.2727C97.9105 20.2163 97.9579 20.1034 98.0526 19.9228C98.1473 19.7423 98.242 19.5279 98.3485 19.2796C98.4551 19.0313 98.5616 18.7944 98.6445 18.5574C98.7392 18.3317 98.7865 18.1511 98.7984 18.0157H98.9996V18.0044ZM101 26.1634V26.8743H95.6614V26.1634H101ZM98.9996 18.0044L104.954 30.1356H102.089L98.0644 20.9949L98.9996 18.0044ZM101.557 28.9169H104.362C104.551 29.3231 104.8 29.6165 105.108 29.7971C105.416 29.9776 105.7 30.0679 105.972 30.0679H106.138V30.2598H100.692V30.0679H100.858C101.095 30.0679 101.308 29.9664 101.497 29.7745C101.687 29.5714 101.71 29.2893 101.557 28.9169Z" fill="#154759"/>
<path d="M110.754 18.2076C111.074 18.2076 111.405 18.2188 111.749 18.2414C112.104 18.264 112.435 18.2865 112.767 18.3317C113.098 18.3655 113.394 18.4107 113.643 18.4558C113.891 18.501 114.069 18.5461 114.164 18.58L113.998 20.8256H113.809C113.809 20.2501 113.595 19.7874 113.169 19.4489C112.743 19.1103 112.116 18.9411 111.287 18.9411C110.624 18.9411 110.08 19.0991 109.642 19.4037C109.204 19.7084 108.979 20.1034 108.967 20.5774C108.967 20.8031 109.014 20.9949 109.097 21.1755C109.192 21.356 109.322 21.514 109.5 21.672C109.677 21.83 109.89 21.9767 110.139 22.1234L113.69 24.4255C114.152 24.6851 114.519 25.0462 114.779 25.5201C115.04 25.9828 115.158 26.5132 115.146 27.1C115.123 27.7771 114.921 28.3865 114.542 28.8943C114.164 29.4134 113.643 29.8084 112.98 30.0905C112.317 30.3726 111.559 30.508 110.695 30.508C110.174 30.508 109.665 30.4742 109.168 30.3952C108.671 30.3162 108.245 30.2033 107.866 30.0566C107.499 29.9099 107.191 29.7294 106.955 29.515C106.872 29.278 106.836 28.9959 106.848 28.646C106.86 28.3075 106.907 27.9577 107.002 27.6078C107.097 27.258 107.203 26.9533 107.321 26.705H107.523C107.487 27.2918 107.582 27.8222 107.842 28.2962C108.091 28.7702 108.47 29.1426 108.979 29.4021C109.476 29.6729 110.08 29.8084 110.766 29.8084C111.583 29.7971 112.199 29.6052 112.625 29.2441C113.051 28.883 113.264 28.4316 113.264 27.9012C113.264 27.5627 113.169 27.258 112.968 26.9759C112.767 26.705 112.447 26.4342 111.986 26.1859L108.671 23.9854C108.079 23.6581 107.665 23.2406 107.416 22.7328C107.168 22.225 107.073 21.6946 107.132 21.1303C107.168 20.5435 107.357 20.0244 107.665 19.5843C107.984 19.1442 108.399 18.8056 108.931 18.5574C109.476 18.3317 110.08 18.2076 110.754 18.2076ZM114.199 18.3881L114.176 18.7267H112.21V18.3881H114.199Z" fill="#154759"/>
<path d="M116.2 18.1286C116.306 18.1624 116.484 18.2188 116.732 18.264C116.981 18.3204 117.253 18.3543 117.561 18.3881C117.869 18.422 118.141 18.4333 118.402 18.4333L116.2 18.6251V18.1286ZM127.931 18.4445V19.1668H116.2V18.4445H127.931ZM118.011 19.1104V19.1668C117.502 19.1781 117.111 19.3248 116.827 19.6069C116.543 19.889 116.401 20.2614 116.401 20.7128V20.9498H116.2V19.0991H118.011V19.1104ZM120.887 29.0184V30.2598H119.467V30.0679H119.692C120.012 30.0679 120.272 29.9664 120.497 29.7632C120.722 29.5601 120.828 29.3119 120.852 29.0297H120.887V29.0184ZM123.291 18.5235V30.2598H120.84V18.5235H123.291ZM123.208 29.0184H123.291C123.291 29.3118 123.409 29.5488 123.634 29.752C123.859 29.9551 124.131 30.0567 124.451 30.0567H124.652V30.2485H123.208V29.0184ZM127.931 18.1286V18.6364L125.705 18.4445C125.978 18.4445 126.274 18.4333 126.57 18.3994C126.877 18.3656 127.15 18.3204 127.41 18.2753C127.659 18.2076 127.836 18.1624 127.931 18.1286ZM127.931 19.1104V20.9611H127.706V20.7241C127.718 20.2614 127.588 19.9003 127.304 19.6182C127.019 19.336 126.629 19.1893 126.12 19.1781V19.1216H127.931V19.1104Z" fill="#154759"/>
<path d="M130.654 19.6972H130.618C130.606 19.3925 130.488 19.1442 130.275 18.9524C130.062 18.7605 129.801 18.659 129.505 18.659C129.482 18.659 129.387 18.659 129.233 18.659V18.4671H130.796L130.654 19.6972ZM130.654 29.0185L130.796 30.2598H129.233V30.0679C129.387 30.0679 129.47 30.0679 129.482 30.0679C129.801 30.0679 130.062 29.9664 130.275 29.7633C130.488 29.5601 130.606 29.3119 130.618 29.0297H130.654V29.0185ZM133.033 18.4671V30.2598H130.594V18.4671H133.033ZM135.176 18.4671C135.779 18.4671 136.348 18.5236 136.88 18.6477C137.413 18.7605 137.875 18.9524 138.277 19.2119C138.68 19.4715 138.999 19.7987 139.224 20.205C139.449 20.6112 139.567 21.1078 139.567 21.6833C139.567 22.1686 139.461 22.6425 139.236 23.1052C139.011 23.5679 138.691 23.9628 138.242 24.2901C137.804 24.6061 137.247 24.8092 136.596 24.8882C136.939 24.9898 137.283 25.2155 137.638 25.554C137.993 25.8926 138.265 26.2198 138.455 26.5132C138.49 26.5809 138.597 26.7276 138.751 26.9533C138.905 27.179 139.106 27.4499 139.343 27.7546C139.579 28.0592 139.816 28.3639 140.065 28.6686C140.337 29.0072 140.585 29.278 140.81 29.4811C141.035 29.6843 141.26 29.831 141.497 29.9212C141.734 30.0115 142.006 30.0567 142.314 30.0567V30.2485H140.952C140.207 30.2485 139.579 30.1808 139.07 30.0567C138.561 29.9212 138.135 29.7181 137.78 29.4473C137.425 29.1764 137.105 28.8266 136.821 28.4204C136.726 28.2737 136.596 28.0818 136.442 27.8335C136.288 27.5853 136.123 27.3257 135.957 27.0549C135.791 26.7841 135.637 26.5358 135.507 26.2875C135.365 26.0505 135.282 25.8587 135.235 25.7233C135.034 25.3283 134.785 25.0236 134.513 24.8205C134.24 24.6061 133.968 24.5045 133.708 24.4819V24.3014C133.72 24.3014 133.802 24.3014 133.933 24.3127C134.075 24.324 134.24 24.3127 134.454 24.3014C134.773 24.2901 135.093 24.245 135.412 24.166C135.732 24.087 136.028 23.9177 136.288 23.6582C136.549 23.3986 136.75 22.9923 136.892 22.4394C136.928 22.3378 136.963 22.2024 136.987 22.0444C137.01 21.8864 137.01 21.7059 136.999 21.514C136.987 21.0739 136.904 20.7015 136.75 20.4081C136.596 20.1147 136.407 19.8777 136.17 19.7085C135.933 19.5392 135.685 19.4151 135.412 19.3361C135.14 19.2571 134.88 19.2119 134.631 19.2006C134.229 19.1894 133.885 19.1894 133.578 19.1894C133.27 19.2006 133.092 19.2006 133.021 19.2006C133.009 19.1894 132.986 19.1216 132.962 19.0088C132.938 18.896 132.891 18.7041 132.844 18.4558H135.176V18.4671ZM132.986 29.0185H133.021C133.033 29.3231 133.163 29.5714 133.388 29.7633C133.625 29.9551 133.885 30.0567 134.169 30.0567C134.311 30.0567 134.383 30.0567 134.394 30.0567L134.418 30.2485H132.844L132.986 29.0185Z" fill="#154759"/>
<path d="M149.18 18.2076C150.221 18.2076 151.192 18.3543 152.068 18.6364C152.944 18.9298 153.713 19.336 154.353 19.8777C155.004 20.4194 155.501 21.0626 155.844 21.8187C156.199 22.5748 156.365 23.4211 156.365 24.3691C156.365 25.317 156.188 26.1634 155.844 26.9194C155.489 27.6755 154.992 28.3188 154.353 28.8604C153.702 29.4021 152.944 29.8084 152.068 30.1018C151.192 30.3952 150.221 30.5306 149.18 30.5306C148.138 30.5306 147.167 30.3839 146.291 30.1018C145.415 29.8084 144.646 29.4021 144.007 28.8604C143.367 28.3188 142.87 27.6755 142.527 26.9194C142.172 26.1634 142.006 25.317 142.006 24.3691C142.006 23.4211 142.184 22.5748 142.527 21.8187C142.882 21.0626 143.367 20.4194 144.007 19.8777C144.646 19.336 145.403 18.9298 146.291 18.6364C147.167 18.3543 148.126 18.2076 149.18 18.2076ZM149.18 29.8084C150.067 29.8084 150.861 29.5827 151.547 29.1426C152.234 28.7025 152.778 28.0592 153.169 27.2467C153.56 26.4229 153.761 25.4637 153.761 24.3691C153.761 23.2519 153.56 22.2927 153.169 21.4802C152.778 20.6676 152.234 20.0357 151.547 19.5956C150.861 19.1555 150.067 18.9298 149.18 18.9298C148.28 18.9298 147.499 19.1555 146.812 19.5956C146.126 20.0357 145.593 20.6676 145.202 21.4802C144.812 22.2927 144.622 23.2519 144.622 24.3691C144.622 25.475 144.812 26.4342 145.202 27.2467C145.593 28.0705 146.126 28.7025 146.812 29.1426C147.487 29.5827 148.28 29.8084 149.18 29.8084Z" fill="#154759"/>
<path d="M176.134 23.5679C176.205 24.2788 176.181 24.9672 176.075 25.633C175.968 26.2988 175.767 26.9308 175.471 27.5063C175.187 28.0931 174.785 28.6009 174.276 29.041C173.767 29.4811 173.139 29.8197 172.393 30.0679C171.648 30.3162 170.783 30.4403 169.789 30.4403C169.102 30.4403 168.428 30.3839 167.753 30.2824C167.09 30.1808 166.463 30.0115 165.871 29.7858C165.291 29.5601 164.77 29.278 164.32 28.9169C163.87 28.5671 163.527 28.1382 163.266 27.653C163.006 27.1564 162.888 26.5922 162.888 25.9377C162.888 25.4524 162.971 25.0236 163.124 24.6512C163.278 24.2788 163.491 23.9516 163.764 23.6581C164.036 23.3647 164.332 23.1278 164.652 22.9359C164.971 22.7441 165.303 22.5861 165.646 22.4507C165.977 22.3153 166.297 22.225 166.581 22.1573L166.936 22.5748C166.77 22.7102 166.605 22.8682 166.439 23.06C166.273 23.2519 166.119 23.4776 165.989 23.7259C165.847 23.9854 165.741 24.2675 165.658 24.5948C165.575 24.9108 165.551 25.2832 165.575 25.6894C165.587 26.3327 165.717 26.8969 165.977 27.4047C166.226 27.9012 166.569 28.3188 166.995 28.6686C167.422 29.0072 167.919 29.2667 168.475 29.4473C169.043 29.6278 169.647 29.7181 170.286 29.7181C171.02 29.7181 171.648 29.5714 172.192 29.2893C172.737 28.9959 173.187 28.6235 173.542 28.1721C173.897 27.7094 174.169 27.2016 174.335 26.6486C174.512 26.0957 174.583 25.5427 174.548 25.001C174.524 24.4594 174.394 23.9516 174.157 23.5002C174.003 23.1955 173.826 22.9698 173.613 22.8231C173.4 22.6764 173.151 22.5974 172.855 22.5974H172.547V22.4055H177.128V22.5974H176.844C176.525 22.5974 176.323 22.6877 176.217 22.8682C176.146 23.0262 176.099 23.2745 176.134 23.5679ZM169.612 16.2214C170.132 16.2214 170.641 16.2779 171.139 16.3794C171.636 16.481 172.086 16.639 172.512 16.8421C172.926 17.0452 173.258 17.3048 173.494 17.6208L172.879 20.2388H172.689C172.689 19.6407 172.595 19.0878 172.393 18.6025C172.192 18.106 171.896 17.7223 171.494 17.4176C171.091 17.1242 170.582 16.9775 169.967 16.9775C169.256 16.9775 168.664 17.2145 168.191 17.6772C167.717 18.1399 167.493 18.7267 167.493 19.4376C167.493 20.2276 167.788 20.9611 168.38 21.6607C168.972 22.3604 169.813 23.1729 170.914 24.0983C171.221 24.3352 171.553 24.6061 171.908 24.922C172.275 25.238 172.654 25.554 173.056 25.8813C173.459 26.2085 173.838 26.5132 174.193 26.8066C174.844 27.3257 175.436 27.8223 175.992 28.2849C176.548 28.7476 177.081 29.1313 177.578 29.4473C178.075 29.7632 178.561 29.9664 179.034 30.0792L179.058 30.2711C178.608 30.2936 178.064 30.3162 177.436 30.3275C176.809 30.3388 176.146 30.2711 175.459 30.1018C174.761 29.9325 174.086 29.6278 173.423 29.1651C173.009 28.8605 172.595 28.5445 172.18 28.2172C171.766 27.89 171.352 27.5627 170.961 27.258C170.57 26.942 170.203 26.6486 169.884 26.3778C169.552 26.107 169.268 25.87 169.02 25.6556C168.226 24.9898 167.516 24.3465 166.901 23.7259C166.285 23.1052 165.788 22.4732 165.433 21.8187C165.078 21.1642 164.9 20.4533 164.9 19.6746C164.9 19.1104 165.018 18.6138 165.267 18.185C165.516 17.7562 165.859 17.3951 166.297 17.1017C166.735 16.8082 167.244 16.5938 167.8 16.4471C168.369 16.3004 168.972 16.2214 169.612 16.2214Z" fill="#154759"/>
<path d="M188.552 16.2214C188.812 16.2214 189.12 16.2327 189.475 16.2553C189.83 16.2779 190.197 16.323 190.552 16.3681C190.919 16.4133 191.239 16.4584 191.535 16.5036C191.819 16.5487 192.02 16.5938 192.139 16.6503L191.973 19.1442H191.772C191.772 18.4784 191.523 17.948 191.014 17.553C190.517 17.1581 189.866 16.9662 189.061 16.9662C188.268 16.9662 187.629 17.1581 187.155 17.553C186.682 17.948 186.433 18.422 186.421 18.9862C186.397 19.3135 186.492 19.6295 186.717 19.9341C186.942 20.2388 187.25 20.5322 187.64 20.7918L191.618 23.6017C192.186 23.9516 192.589 24.3804 192.861 24.8882C193.121 25.396 193.24 25.9603 193.216 26.5922C193.18 27.7997 192.719 28.7589 191.843 29.4586C190.967 30.1695 189.783 30.5193 188.28 30.5193C187.771 30.5193 187.25 30.4742 186.717 30.3952C186.184 30.3049 185.699 30.1808 185.261 30.0002C184.823 29.8197 184.468 29.6053 184.207 29.357C184.125 29.0974 184.089 28.7815 184.101 28.4091C184.113 28.0367 184.172 27.653 184.267 27.2467C184.361 26.8518 184.48 26.5132 184.622 26.2311H184.811C184.752 26.8969 184.87 27.5063 185.166 28.0479C185.45 28.5896 185.877 29.0184 186.433 29.3231C186.989 29.6278 187.64 29.7745 188.398 29.7632C189.25 29.7407 189.937 29.5037 190.446 29.0749C190.967 28.646 191.215 28.0818 191.215 27.4047C191.215 27.0097 191.109 26.6599 190.884 26.3327C190.659 26.0167 190.316 25.7233 189.854 25.4524L186.125 22.7554C185.498 22.3604 185.048 21.8864 184.776 21.3335C184.503 20.7805 184.397 20.1937 184.432 19.5956C184.468 18.9637 184.657 18.3881 184.989 17.8803C185.32 17.3612 185.782 16.9549 186.386 16.6503C186.989 16.3681 187.711 16.2214 188.552 16.2214ZM192.151 16.4133L192.127 16.8308H189.984V16.4133H192.151Z" fill="#154759"/>
<path d="M196.732 28.9169C196.578 29.2893 196.601 29.5601 196.791 29.7632C196.98 29.9551 197.193 30.0566 197.43 30.0566H197.596V30.2485H193.536V30.0566H193.701C193.985 30.0566 194.281 29.9664 194.589 29.7858C194.897 29.6052 195.134 29.3118 195.335 28.9056H196.732V28.9169ZM200.65 18.0044L200.709 20.0244L196.152 30.1921H194.707L199.549 20.2614C199.561 20.205 199.608 20.0921 199.703 19.9116C199.798 19.731 199.892 19.5166 199.999 19.2683C200.105 19.0201 200.212 18.7831 200.295 18.5461C200.39 18.3204 200.437 18.1398 200.449 18.0044H200.65ZM202.651 26.1634V26.8743H197.312V26.1634H202.651ZM200.65 18.0044L206.604 30.1356H203.74L199.715 20.9949L200.65 18.0044ZM203.207 28.9169H206.012C206.202 29.3231 206.45 29.6165 206.758 29.7971C207.066 29.9776 207.35 30.0679 207.622 30.0679H207.788V30.2598H202.343V30.0679H202.509C202.745 30.0679 202.958 29.9664 203.148 29.7745C203.337 29.5714 203.361 29.2893 203.207 28.9169Z" fill="#154759"/>
<path d="M209.422 29.0636V30.2598H207.895V30.0679H208.226C208.546 30.0679 208.806 29.9776 209.031 29.7858C209.256 29.594 209.363 29.357 209.363 29.0636H209.422ZM209.351 18.185L211.541 20.521V30.2485H209.351V20.4758C209.351 19.81 209.28 19.0426 209.149 18.1737H209.351V18.185ZM209.351 18.185L221.224 28.3639L221.425 30.508L209.552 20.3065L209.351 18.185ZM211.541 29.0636C211.553 29.357 211.671 29.594 211.896 29.7858C212.121 29.9776 212.381 30.0679 212.665 30.0679H213.02V30.2598H211.493V29.0636H211.541ZM219.235 19.6633C219.223 19.3699 219.105 19.1329 218.88 18.9411C218.655 18.7492 218.395 18.659 218.099 18.659H217.744V18.4671H219.271V19.6633H219.235ZM221.425 18.4671V28.1608C221.425 28.6122 221.437 29.0072 221.473 29.357C221.508 29.7068 221.555 30.1018 221.626 30.5193H221.437L219.235 28.0818V18.4671H221.425ZM221.354 19.6633V18.4671H222.905V18.659H222.55C222.242 18.659 221.982 18.7492 221.757 18.9411C221.532 19.1329 221.413 19.3699 221.413 19.6633H221.354Z" fill="#154759"/>
<path d="M223.663 18.1286C223.769 18.1624 223.947 18.2188 224.195 18.264C224.444 18.3204 224.716 18.3543 225.024 18.3881C225.332 18.422 225.604 18.4333 225.864 18.4333L223.663 18.6251V18.1286ZM235.406 18.4445V19.1668H223.674V18.4445H235.406ZM225.486 19.1104V19.1668C224.976 19.1781 224.586 19.3248 224.302 19.6069C224.018 19.889 223.876 20.2614 223.876 20.7128V20.9498H223.674V19.0991H225.486V19.1104ZM228.35 29.0184V30.2598H226.93V30.0679H227.155C227.474 30.0679 227.735 29.9664 227.96 29.7632C228.185 29.5601 228.291 29.3119 228.315 29.0297H228.35V29.0184ZM230.765 18.5235V30.2598H228.315V18.5235H230.765ZM230.682 29.0184H230.765C230.765 29.3118 230.884 29.5488 231.108 29.752C231.333 29.9551 231.606 30.0567 231.925 30.0567H232.126V30.2485H230.682V29.0184ZM235.406 18.1286V18.6364L233.18 18.4445C233.452 18.4445 233.748 18.4333 234.044 18.3994C234.352 18.3656 234.624 18.3204 234.885 18.2753C235.133 18.2076 235.311 18.1624 235.406 18.1286ZM235.406 19.1104V20.9611H235.181V20.7241C235.192 20.2614 235.062 19.9003 234.778 19.6182C234.494 19.336 234.103 19.1893 233.594 19.1781V19.1216H235.406V19.1104Z" fill="#154759"/>
<path d="M243.301 18.2076C244.343 18.2076 245.314 18.3543 246.19 18.6364C247.066 18.9298 247.835 19.336 248.474 19.8777C249.125 20.4194 249.623 21.0626 249.966 21.8187C250.321 22.5748 250.487 23.4211 250.487 24.3691C250.487 25.317 250.309 26.1634 249.966 26.9194C249.611 27.6755 249.114 28.3188 248.474 28.8604C247.823 29.4021 247.066 29.8084 246.19 30.1018C245.314 30.3952 244.343 30.5306 243.301 30.5306C242.26 30.5306 241.289 30.3839 240.413 30.1018C239.537 29.8084 238.767 29.4021 238.128 28.8604C237.489 28.3188 236.992 27.6755 236.648 26.9194C236.293 26.1634 236.128 25.317 236.128 24.3691C236.128 23.4211 236.305 22.5748 236.648 21.8187C237.004 21.0626 237.489 20.4194 238.128 19.8777C238.767 19.336 239.525 18.9298 240.413 18.6364C241.289 18.3543 242.26 18.2076 243.301 18.2076ZM243.301 29.8084C244.189 29.8084 244.982 29.5827 245.669 29.1426C246.355 28.7025 246.9 28.0592 247.291 27.2467C247.681 26.4229 247.882 25.4637 247.882 24.3691C247.882 23.2519 247.681 22.2927 247.291 21.4802C246.9 20.6676 246.355 20.0357 245.669 19.5956C244.982 19.1555 244.189 18.9298 243.301 18.9298C242.402 18.9298 241.62 19.1555 240.934 19.5956C240.247 20.0357 239.714 20.6676 239.324 21.4802C238.933 22.2927 238.744 23.2519 238.744 24.3691C238.744 25.475 238.933 26.4342 239.324 27.2467C239.703 28.0705 240.247 28.7025 240.934 29.1426C241.62 29.5827 242.402 29.8084 243.301 29.8084Z" fill="#154759"/>
<path d="M256.228 18.2076C256.548 18.2076 256.879 18.2188 257.234 18.2414C257.589 18.264 257.921 18.2865 258.252 18.3317C258.584 18.3655 258.88 18.4107 259.128 18.4558C259.377 18.501 259.554 18.5461 259.649 18.58L259.483 20.8256H259.294C259.294 20.2501 259.081 19.7874 258.655 19.4489C258.229 19.1103 257.601 18.9411 256.773 18.9411C256.11 18.9411 255.565 19.0991 255.127 19.4037C254.689 19.7084 254.464 20.1034 254.452 20.5774C254.452 20.8031 254.5 20.9949 254.583 21.1755C254.677 21.356 254.808 21.514 254.985 21.672C255.163 21.83 255.376 21.9767 255.624 22.1234L259.176 24.4255C259.637 24.6851 260.004 25.0462 260.265 25.5201C260.525 25.9828 260.655 26.5132 260.632 27.1C260.608 27.7771 260.407 28.3865 260.028 28.8943C259.649 29.4134 259.128 29.8084 258.465 30.0905C257.802 30.3726 257.045 30.508 256.181 30.508C255.66 30.508 255.151 30.4742 254.654 30.3952C254.156 30.3162 253.73 30.2033 253.351 30.0566C252.985 29.9099 252.677 29.7294 252.44 29.515C252.357 29.278 252.322 28.9959 252.333 28.646C252.345 28.3075 252.393 27.9577 252.487 27.6078C252.582 27.258 252.689 26.9533 252.807 26.705H253.008C252.973 27.2918 253.067 27.8222 253.328 28.2962C253.576 28.7702 253.955 29.1426 254.464 29.4021C254.961 29.6729 255.565 29.8084 256.252 29.8084C257.069 29.7971 257.684 29.6052 258.11 29.2441C258.536 28.883 258.749 28.4316 258.749 27.9012C258.749 27.5627 258.655 27.258 258.454 26.9759C258.252 26.705 257.933 26.4342 257.471 26.1859L254.156 23.9854C253.565 23.6581 253.15 23.2406 252.902 22.7328C252.653 22.225 252.558 21.6946 252.618 21.1303C252.653 20.5435 252.842 20.0244 253.15 19.5843C253.47 19.1442 253.884 18.8056 254.417 18.5574C254.961 18.3317 255.553 18.2076 256.228 18.2076ZM259.673 18.3881L259.649 18.7267H257.696V18.3881H259.673Z" fill="#154759"/>
<path d="M127.756 42.9774H126.992L130.091 36.3134H130.781L133.894 42.9774H133.116L132.25 41.1434H128.608L127.756 42.9774ZM130.429 37.1954L128.843 40.5414H132L130.429 37.1954Z" fill="#D29729"/>
<path d="M139.813 42.9775H137.536V36.3556H139.813C140.944 36.3556 141.839 36.6636 142.53 37.2796C143.22 37.8955 143.572 38.6935 143.572 39.6735C143.572 40.6535 143.22 41.4515 142.53 42.0675C141.854 42.6695 140.944 42.9775 139.813 42.9775ZM138.285 36.9856V42.3335H139.739C140.694 42.3335 141.458 42.0955 142.016 41.6055C142.574 41.1295 142.853 40.4715 142.853 39.6595C142.853 38.8335 142.574 38.1895 142.016 37.7135C141.458 37.2236 140.694 36.9856 139.739 36.9856H138.285Z" fill="#D29729"/>
<path d="M150.284 43.0195H149.593L146.539 36.3556H147.347L149.946 42.0535L152.545 36.3556H153.353L150.284 43.0195Z" fill="#D29729"/>
<path d="M157.274 37.2235C157.95 36.5655 158.772 36.2435 159.771 36.2435C160.769 36.2435 161.592 36.5655 162.267 37.2235C162.943 37.8815 163.266 38.6934 163.266 39.6734C163.266 40.6534 162.928 41.4654 162.267 42.1234C161.606 42.7674 160.769 43.1034 159.771 43.1034C158.757 43.1034 157.935 42.7814 157.274 42.1234C156.613 41.4794 156.275 40.6534 156.275 39.6734C156.275 38.6794 156.613 37.8675 157.274 37.2235ZM157.817 41.6334C158.346 42.1654 158.992 42.4314 159.771 42.4314C160.549 42.4314 161.21 42.1654 161.724 41.6334C162.253 41.1014 162.517 40.4434 162.517 39.6594C162.517 38.8754 162.253 38.2174 161.724 37.6855C161.195 37.1535 160.549 36.8875 159.771 36.8875C158.992 36.8875 158.331 37.1535 157.817 37.6855C157.289 38.2174 157.024 38.8754 157.024 39.6594C157.024 40.4434 157.289 41.1014 157.817 41.6334Z" fill="#D29729"/>
<path d="M170.623 43.0894C169.61 43.0894 168.758 42.7674 168.068 42.1234C167.393 41.4794 167.055 40.6534 167.055 39.6594C167.055 38.6654 167.393 37.8534 168.068 37.2095C168.744 36.5655 169.595 36.2295 170.623 36.2295C171.372 36.2295 172.033 36.3975 172.577 36.7195V37.4334C171.975 37.0555 171.328 36.8735 170.638 36.8735C169.845 36.8735 169.17 37.1395 168.626 37.6714C168.083 38.1894 167.818 38.8474 167.818 39.6454C167.818 40.4574 168.083 41.1154 168.626 41.6334C169.17 42.1514 169.86 42.4174 170.667 42.4174C171.475 42.4174 172.165 42.1934 172.738 41.7594V42.4874C172.151 42.8934 171.446 43.0894 170.623 43.0894Z" fill="#D29729"/>
<path d="M176.659 42.9774H175.896L178.994 36.3134H179.685L182.798 42.9774H182.02L181.153 41.1434H177.511L176.659 42.9774ZM179.332 37.1954L177.746 40.5414H180.903L179.332 37.1954Z" fill="#D29729"/>
<path d="M189.23 43.0894C188.217 43.0894 187.365 42.7674 186.675 42.1234C185.999 41.4794 185.662 40.6534 185.662 39.6594C185.662 38.6654 185.999 37.8534 186.675 37.2095C187.35 36.5655 188.202 36.2295 189.23 36.2295C189.979 36.2295 190.64 36.3975 191.183 36.7195V37.4334C190.581 37.0555 189.935 36.8735 189.245 36.8735C188.452 36.8735 187.776 37.1395 187.233 37.6714C186.69 38.1894 186.425 38.8474 186.425 39.6454C186.425 40.4574 186.69 41.1154 187.233 41.6334C187.776 42.1514 188.467 42.4174 189.274 42.4174C190.082 42.4174 190.772 42.1934 191.345 41.7594V42.4874C190.758 42.8934 190.053 43.0894 189.23 43.0894Z" fill="#D29729"/>
<path d="M195.971 42.9775H195.237V36.3556H195.971V42.9775Z" fill="#D29729"/>
<path d="M200.436 42.9774H199.672L202.771 36.3134H203.461L206.574 42.9774H205.796L204.929 41.1434H201.287L200.436 42.9774ZM203.108 37.1954L201.522 40.5414H204.68L203.108 37.1954Z" fill="#D29729"/>
<defs>
<linearGradient id="paint0_linear_4_175" x1="37.0486" y1="10.0929" x2="37.5773" y2="46.9136" gradientUnits="userSpaceOnUse">
<stop stop-color="#DBA85A"/>
<stop offset="0.1086" stop-color="#D5A356"/>
<stop offset="0.2473" stop-color="#C6954C"/>
<stop offset="0.4017" stop-color="#AC7F3B"/>
<stop offset="0.4296" stop-color="#A67A37"/>
<stop offset="0.5514" stop-color="#A07635"/>
<stop offset="0.7066" stop-color="#916A30"/>
<stop offset="0.8229" stop-color="#805E2A"/>
</linearGradient>
<linearGradient id="paint1_linear_4_175" x1="36.9945" y1="10.0937" x2="37.5231" y2="46.9144" gradientUnits="userSpaceOnUse">
<stop stop-color="#DBA85A"/>
<stop offset="0.1086" stop-color="#D5A356"/>
<stop offset="0.2473" stop-color="#C6954C"/>
<stop offset="0.4017" stop-color="#AC7F3B"/>
<stop offset="0.4296" stop-color="#A67A37"/>
<stop offset="0.5514" stop-color="#A07635"/>
<stop offset="0.7066" stop-color="#916A30"/>
<stop offset="0.8229" stop-color="#805E2A"/>
</linearGradient>
<linearGradient id="paint2_linear_4_175" x1="60.6259" y1="-2.2979" x2="60.6259" y2="44.6143" gradientUnits="userSpaceOnUse">
<stop stop-color="#DBA85A"/>
<stop offset="0.1086" stop-color="#D5A356"/>
<stop offset="0.2473" stop-color="#C6954C"/>
<stop offset="0.4017" stop-color="#AC7F3B"/>
<stop offset="0.4296" stop-color="#A67A37"/>
<stop offset="0.5514" stop-color="#A07635"/>
<stop offset="0.7066" stop-color="#916A30"/>
<stop offset="0.8229" stop-color="#805E2A"/>
</linearGradient>
<linearGradient id="paint3_linear_4_175" x1="14.1518" y1="-2.29803" x2="14.1518" y2="44.6142" gradientUnits="userSpaceOnUse">
<stop stop-color="#DBA85A"/>
<stop offset="0.1086" stop-color="#D5A356"/>
<stop offset="0.2473" stop-color="#C6954C"/>
<stop offset="0.4017" stop-color="#AC7F3B"/>
<stop offset="0.4296" stop-color="#A67A37"/>
<stop offset="0.5514" stop-color="#A07635"/>
<stop offset="0.7066" stop-color="#916A30"/>
<stop offset="0.8229" stop-color="#805E2A"/>
</linearGradient>
<linearGradient id="paint4_linear_4_175" x1="37.3766" y1="-2.29798" x2="37.3766" y2="44.6142" gradientUnits="userSpaceOnUse">
<stop stop-color="#DBA85A"/>
<stop offset="0.1086" stop-color="#D5A356"/>
<stop offset="0.2473" stop-color="#C6954C"/>
<stop offset="0.4017" stop-color="#AC7F3B"/>
<stop offset="0.4296" stop-color="#A67A37"/>
<stop offset="0.5514" stop-color="#A07635"/>
<stop offset="0.7066" stop-color="#916A30"/>
<stop offset="0.8229" stop-color="#805E2A"/>
</linearGradient>
</defs>
</svg>
